# xmcd CD database file
#
# Track frame offsets:
#	150
#	15452
#	30052
#	46302
#	63739
#	82605
#	95280
#	112557
#	128004
#	142290
#
# Disc length: 2126 seconds
#
# Revision: 1
# Processed by: cddbd v1.5.2PL0 Copyright (c) Steve Scherf et al.
# Submitted via: CDex 1.70beta2
#
DISCID=6b084c0a
DTITLE=Eddie Rabbitt - All American Country
DYEAR=2003
DGENRE=Country
TTITLE0=The Wanderer
TTITLE1=I Wanna Dance With You
TTITLE2=We Must Be Doin' Somethin' Right
TTITLE3=A World Without Love
TTITLE4=Letter From Home
TTITLE5=That's Why I Fell in Love With You
TTITLE6=Gotta Have You
TTITLE7=Repetitive Regret
TTITLE8=One- Two-Three, You Really Got A Hold On Me (The Wrestling Song)
TTITLE9=Workin' Out
EXTD=YEAR: 2003
EXTT0=
EXTT1=
EXTT2=
EXTT3=
EXTT4=
EXTT5=
EXTT6=
EXTT7=
EXTT8=
EXTT9=
PLAYORDER=
